<svg width="21" height="19" viewBox="0 0 21 19" fill="none" xmlns="http://www.w3.org/2000/svg">
<path d="M9.13006 1.44994L7.12006 6.11994L6.68006 7.15994C6.60006 7.31994 6.39006 7.45994 6.21006 7.45994L3.15006 7.45994C2.19006 7.45994 1.05006 8.16994 0.610058 9.02994C0.460058 9.32994 0.460058 9.68994 0.610058 9.98994C1.05006 10.8399 2.20006 11.5499 3.16006 11.5499L6.22006 11.5499C6.40006 11.5499 6.61006 11.6899 6.69006 11.8499L9.14006 17.5499C9.40006 18.1799 10.1901 18.6899 10.8701 18.6899L12.1901 18.6899C13.0401 18.6899 13.4601 18.0499 13.1201 17.2599L10.9601 12.2499C10.7901 11.8599 11.0001 11.5399 11.4301 11.5399L12.5401 11.5399L14.3401 11.5399C14.5701 11.5399 14.9001 11.6699 15.0601 11.8299L17.3901 14.1499C17.6301 14.3899 18.1001 14.4999 18.4401 14.3899L19.8001 13.9399C20.3901 13.7599 20.6701 13.0899 20.3901 12.5399L18.3901 10.1599C18.0801 9.79994 18.0801 9.20994 18.3901 8.84994L20.3901 6.46994C20.6601 5.91994 20.3901 5.24994 19.8001 5.04994L18.4401 4.59994C18.1101 4.48994 17.6301 4.59994 17.3901 4.83994L15.0601 7.15994C14.9001 7.32994 14.5701 7.45994 14.3401 7.45994L11.4301 7.45994C11.0001 7.45994 10.8001 7.14994 10.9601 6.74994L13.1201 1.73994C13.4601 0.949939 13.0401 0.30994 12.1901 0.30994L10.8701 0.30994C10.1901 0.30994 9.40006 0.819942 9.13006 1.44994Z" fill="#606060"/>
</svg>
